<svg data-v-423bf9ae="" xmlns="http://www.w3.org/2000/svg" viewBox="0 0 547 107" class="iconLeftSlogan"><!----><!----><!----><g data-v-423bf9ae="" id="d6b31323-a920-45a0-88a4-cee82efc9f87" fill="#000000" transform="matrix(4.264392416587725,0,0,4.264392416587725,99.39924125886103,-16.07675980603605)"><path d="M4.31 4.61C4.31 4.61 3.51 4.68 2.39 4.68C2.11 4.68 0.77 4.61 0.77 4.61L0.70 5.36L1.78 5.53C1.81 5.71 1.90 6.36 1.90 6.59L1.90 12.63C1.90 12.87 1.81 13.51 1.78 13.69L0.67 13.92L0.74 14.62C0.74 14.62 2.11 14.55 2.39 14.55C3.51 14.55 4.44 14.62 4.44 14.62L4.54 13.79L3.28 13.69C3.25 13.50 3.18 12.80 3.18 12.21L3.18 7.01C3.18 6.43 3.25 5.73 3.28 5.53L4.37 5.43ZM5.59 8.32L6.65 8.54C6.65 8.54 6.79 9.32 6.79 9.60L6.79 12.70C6.76 13.02 6.65 13.69 6.65 13.69L5.59 13.92L5.66 14.62C5.66 14.62 6.93 14.55 7.21 14.55C8.33 14.55 9.02 14.62 9.02 14.62L9.11 13.79L8.02 13.69C8.02 13.69 7.92 12.91 7.92 12.21L7.92 10.71C7.94 9.34 8.61 8.36 9.72 8.36C10.89 8.36 11.16 9.51 11.16 10.68L11.16 12.63C11.16 12.98 11.09 13.38 11.02 13.69L10.08 13.92L10.15 14.62C10.15 14.62 11.30 14.55 11.58 14.55C12.70 14.55 13.38 14.62 13.38 14.62L13.48 13.79L12.39 13.69C12.39 13.69 12.29 12.91 12.29 12.21L12.29 10.68C12.29 8.75 11.86 7.50 9.93 7.50C8.86 7.50 8.13 8.13 7.80 8.78L7.71 7.88L7.45 7.63L6.94 7.63C6.66 7.63 5.66 7.57 5.66 7.57ZM17.79 3.77C16.18 3.77 15.33 4.72 15.33 6.19L15.33 7.39C15.01 7.59 14.67 7.64 14.21 7.80L14.25 8.39L15.33 8.39L15.33 12.63C15.33 12.91 15.19 13.69 15.19 13.69L14.13 13.92L14.20 14.62C14.20 14.62 15.47 14.55 15.75 14.55C16.87 14.55 17.84 14.62 17.84 14.62L17.93 13.79L16.56 13.69C16.56 13.69 16.46 12.91 16.46 12.21L16.46 8.39L18.35 8.39L18.42 7.63L16.46 7.63L16.46 6.62C16.46 5.36 16.53 4.51 17.79 4.51C17.89 4.51 18.06 4.52 18.17 4.52C18.26 4.82 18.34 5.12 18.34 5.25L18.34 5.75L19.08 5.80L19.24 3.91C19.24 3.91 18.37 3.77 17.79 3.77ZM22.57 13.79L21.48 13.69C21.48 13.69 21.38 12.91 21.38 12.21L21.38 10.02C21.38 9.32 21.48 7.88 21.48 7.88L21.21 7.63L20.40 7.63C20.12 7.63 19.11 7.57 19.11 7.57L19.04 8.32L20.10 8.54C20.10 8.54 20.24 9.32 20.24 9.60L20.24 12.63C20.24 12.91 20.10 13.69 20.10 13.69L19.04 13.92L19.11 14.62C19.11 14.62 20.38 14.55 20.66 14.55C21.78 14.55 22.47 14.62 22.47 14.62ZM20.82 4.47C20.29 4.47 19.99 4.84 19.99 5.38C19.99 5.91 20.29 6.27 20.82 6.27C21.35 6.27 21.64 5.91 21.64 5.38C21.64 4.80 21.34 4.47 20.82 4.47ZM23.25 8.32L24.32 8.54C24.32 8.54 24.46 9.32 24.46 9.60L24.46 12.70C24.43 13.02 24.32 13.69 24.32 13.69L23.25 13.92L23.32 14.62C23.32 14.62 24.60 14.55 24.88 14.55C26.00 14.55 26.68 14.62 26.68 14.62L26.78 13.79L25.69 13.69C25.69 13.69 25.59 12.91 25.59 12.21L25.59 10.71C25.61 9.34 26.28 8.36 27.38 8.36C28.56 8.36 28.83 9.51 28.83 10.68L28.83 12.63C28.83 12.98 28.76 13.38 28.69 13.69L27.75 13.92L27.82 14.62C27.82 14.62 28.97 14.55 29.25 14.55C30.37 14.55 31.05 14.62 31.05 14.62L31.15 13.79L30.06 13.69C30.06 13.69 29.96 12.91 29.96 12.21L29.96 10.68C29.96 8.75 29.53 7.50 27.59 7.50C26.53 7.50 25.80 8.13 25.47 8.78L25.38 7.88L25.12 7.63L24.61 7.63C24.33 7.63 23.32 7.57 23.32 7.57ZM35.32 13.79L34.23 13.69C34.23 13.69 34.13 12.91 34.13 12.21L34.13 10.02C34.13 9.32 34.23 7.88 34.23 7.88L33.96 7.63L33.15 7.63C32.87 7.63 31.86 7.57 31.86 7.57L31.79 8.32L32.86 8.54C32.86 8.54 33.00 9.32 33.00 9.60L33.00 12.63C33.00 12.91 32.86 13.69 32.86 13.69L31.79 13.92L31.86 14.62C31.86 14.62 33.14 14.55 33.42 14.55C34.54 14.55 35.22 14.62 35.22 14.62ZM33.57 4.47C33.04 4.47 32.75 4.84 32.75 5.38C32.75 5.91 33.04 6.27 33.57 6.27C34.10 6.27 34.40 5.91 34.40 5.38C34.40 4.80 34.09 4.47 33.57 4.47ZM39.90 13.38C39.90 13.38 39.30 13.79 38.79 13.79C38.28 13.79 38.04 13.40 38.04 12.70L38.04 8.39L39.93 8.39L40.00 7.63L38.04 7.63L38.04 6.19L37.55 6.13C37.55 6.13 37.02 7.25 36.90 7.39C36.58 7.59 36.25 7.64 35.78 7.80L35.83 8.39L36.90 8.39L36.90 12.36C36.90 13.90 37.31 14.69 38.64 14.69C39.34 14.69 39.84 14.31 40.29 13.96ZM43.93 7.50C41.87 7.50 40.88 9.02 40.88 11.12C40.88 13.23 41.99 14.69 44.10 14.69C45.68 14.69 46.58 13.85 46.58 13.85L46.19 13.20C46.19 13.20 45.29 13.78 44.10 13.78C42.84 13.78 42.24 12.49 42.20 11.23L46.38 11.23L46.62 10.77C46.62 8.81 45.89 7.50 43.93 7.50ZM43.88 8.23C44.87 8.23 45.33 9.02 45.33 10.01C45.33 10.08 45.32 10.29 45.32 10.29L42.21 10.53C42.31 9.37 42.73 8.23 43.88 8.23ZM50.76 5.36L51.84 5.53C51.87 5.71 51.97 6.36 51.97 6.59L51.97 12.63C51.97 12.87 51.87 13.51 51.84 13.69L50.74 13.92L50.81 14.62C50.81 14.62 52.18 14.55 52.46 14.55L55.78 14.55C56.06 14.55 57.37 14.60 57.37 14.60L57.64 14.35L57.85 12.24L57.08 12.17C57.05 12.39 56.91 12.89 56.87 13.10C56.84 13.23 56.71 13.43 56.57 13.62C56.27 13.68 55.79 13.75 55.36 13.75L53.34 13.75C53.31 13.48 53.24 12.77 53.24 12.21L53.24 9.86C53.48 9.83 53.72 9.81 53.84 9.81L54.59 9.81C54.87 9.81 55.71 9.90 55.71 9.90L55.83 10.84L56.50 10.75C56.50 10.75 56.46 9.93 56.46 9.23C56.46 8.95 56.48 8.05 56.48 8.05L55.83 7.98L55.71 8.90C55.71 8.90 55.15 9.03 54.87 9.03L53.84 9.03C53.73 9.03 53.48 9.02 53.24 9.00L53.24 7.01C53.24 6.47 53.31 5.75 53.34 5.46L55.17 5.46C55.57 5.46 56 5.50 56.31 5.53C56.45 5.71 56.57 5.91 56.59 6.01C56.64 6.22 56.71 6.54 56.74 6.76L57.55 6.69L57.46 4.79L57.19 4.54C57.19 4.54 55.87 4.68 55.59 4.68L52.46 4.68C52.18 4.68 50.83 4.61 50.83 4.61ZM58.66 4.65L59.72 4.87C59.72 4.87 59.86 5.66 59.86 5.94L59.86 12.63C59.86 12.91 59.75 13.57 59.72 13.69L58.65 13.92L58.72 14.62C58.72 14.62 59.99 14.55 60.27 14.55C61.39 14.55 62.08 14.62 62.08 14.62L62.17 13.79L61.08 13.69C61.07 13.58 61.00 12.82 61.00 12.21L61.00 6.36C61.00 5.70 61.05 4.65 61.10 4.21L60.83 3.96L60.02 3.96C59.74 3.96 58.73 3.91 58.73 3.91ZM66.09 7.50C64.04 7.50 63.04 9.02 63.04 11.12C63.04 13.23 64.15 14.69 66.26 14.69C67.84 14.69 68.74 13.85 68.74 13.85L68.35 13.20C68.35 13.20 67.45 13.78 66.26 13.78C65.00 13.78 64.40 12.49 64.36 11.23L68.54 11.23L68.78 10.77C68.78 8.81 68.05 7.50 66.09 7.50ZM66.04 8.23C67.03 8.23 67.49 9.02 67.49 10.01C67.49 10.08 67.48 10.29 67.48 10.29L64.37 10.53C64.47 9.37 64.89 8.23 66.04 8.23ZM75.81 8.39L75.81 7.57L74.10 7.84C73.68 7.63 73.19 7.50 72.63 7.50C71.01 7.50 69.93 8.51 69.93 10.04C69.93 11.05 70.41 11.83 71.19 12.25C70.50 12.82 70.18 13.17 70.18 13.37C70.18 13.86 70.39 14.18 70.90 14.39C70.15 14.98 69.62 15.55 69.62 15.81C69.62 17.14 70.57 17.84 72.39 17.84C74.35 17.84 75.95 16.63 75.95 15.16C75.95 14.49 75.73 14.07 75.32 13.94C74.79 13.78 73.57 13.65 72.62 13.52C71.57 13.40 71.30 13.31 71.30 13.03C71.30 12.95 71.41 12.75 71.68 12.45C71.97 12.53 72.28 12.57 72.63 12.57C74.26 12.57 75.33 11.56 75.33 10.04C75.33 9.34 75.11 8.74 74.69 8.30ZM71.43 14.56C71.69 14.63 72.02 14.69 72.39 14.73L74.21 14.97C74.63 15.02 74.76 15.18 74.76 15.60C74.76 16.45 73.93 17.04 72.79 17.04C71.44 17.04 70.83 16.60 70.83 15.65C70.83 15.39 70.94 15.16 71.43 14.56ZM72.63 8.22C73.63 8.22 74.12 8.82 74.12 10.04C74.12 11.26 73.63 11.86 72.63 11.86C71.64 11.86 71.15 11.26 71.15 10.04C71.15 8.83 71.65 8.22 72.63 8.22ZM81.33 14.55C82.45 14.55 83.13 14.62 83.13 14.62L83.23 13.79L82.26 13.69C82.26 13.69 82.12 12.91 82.12 12.21L82.12 10.47C82.12 8.33 81.48 7.50 79.81 7.50C78.97 7.50 78.12 7.62 77.28 7.84L77.43 9.74L78.25 9.70L78.25 9.13L78.34 8.54C78.69 8.37 79.21 8.26 79.67 8.26C80.56 8.26 80.99 8.89 80.99 10.19L80.99 10.65L78.75 11.03C77.49 11.24 76.87 11.89 76.87 12.89C76.87 13.99 77.66 14.69 78.90 14.69C79.81 14.69 80.77 14.15 81.13 13.44ZM80.99 11.37L80.99 12.21C80.85 13.12 80.07 13.79 79.13 13.79C78.47 13.79 78.11 13.38 78.11 12.68C78.11 12.19 78.43 11.84 78.99 11.75ZM83.97 8.32L85.04 8.54C85.04 8.54 85.18 9.32 85.18 9.60L85.18 12.70C85.15 13.02 85.04 13.69 85.04 13.69L83.97 13.92L84.04 14.62C84.04 14.62 85.32 14.55 85.60 14.55C86.72 14.55 87.40 14.62 87.40 14.62L87.50 13.79L86.41 13.69C86.41 13.69 86.31 12.91 86.31 12.21L86.31 10.71C86.32 9.34 87.00 8.36 88.10 8.36C89.28 8.36 89.54 9.51 89.54 10.68L89.54 12.63C89.54 12.98 89.47 13.38 89.40 13.69L88.47 13.92L88.54 14.62C88.54 14.62 89.68 14.55 89.96 14.55C91.08 14.55 91.77 14.62 91.77 14.62L91.87 13.79L90.78 13.69C90.78 13.69 90.68 12.91 90.68 12.21L90.68 10.68C90.68 8.75 90.24 7.50 88.31 7.50C87.25 7.50 86.52 8.13 86.18 8.78L86.10 7.88L85.83 7.63L85.33 7.63C85.05 7.63 84.04 7.57 84.04 7.57ZM95.79 7.50C93.65 7.50 92.57 8.96 92.57 11.10C92.57 13.24 93.63 14.69 95.77 14.69C97.23 14.69 98.14 13.93 98.14 13.93L97.75 13.27C97.75 13.27 96.88 13.78 95.79 13.78C94.39 13.78 93.88 12.50 93.88 11.10C93.88 9.70 94.39 8.30 95.79 8.30C96.19 8.30 96.53 8.39 96.94 8.72C96.99 8.92 97.03 9.10 97.03 9.20L97.03 9.70L97.85 9.74L97.99 7.99C97.15 7.71 96.61 7.50 95.79 7.50ZM102.14 7.50C100.09 7.50 99.09 9.02 99.09 11.12C99.09 13.23 100.20 14.69 102.31 14.69C103.89 14.69 104.79 13.85 104.79 13.85L104.40 13.20C104.40 13.20 103.50 13.78 102.31 13.78C101.05 13.78 100.45 12.49 100.41 11.23L104.59 11.23L104.83 10.77C104.83 8.81 104.10 7.50 102.14 7.50ZM102.09 8.23C103.08 8.23 103.54 9.02 103.54 10.01C103.54 10.08 103.53 10.29 103.53 10.29L100.42 10.53C100.52 9.37 100.94 8.23 102.09 8.23Z"></path></g><defs data-v-423bf9ae=""><linearGradient data-v-423bf9ae="" gradientTransform="rotate(25)" id="89284ddf-0368-4d99-86bf-1c11406b4a61" x1="0%" y1="0%" x2="100%" y2="0%"><stop data-v-423bf9ae="" offset="0%" style="stop-color: rgb(214, 65, 63); stop-opacity: 1;"></stop><stop data-v-423bf9ae="" offset="100%" style="stop-color: rgb(66, 133, 211); stop-opacity: 1;"></stop></linearGradient></defs><g data-v-423bf9ae="" id="a6d3b7cb-efef-4a4f-83be-ebda2546367c" transform="matrix(1.0868111504448785,0,0,1.0868111504448785,-13.255261890115804,-0.23894260335429607)" stroke="none" fill="url(#89284ddf-0368-4d99-86bf-1c11406b4a61)"><g clip-rule="evenodd"><path d="M12.983 10.59l17.018 88.223-5.872-59.049 29.021-1.892-.054-9.883L64.549 1 53.622 18.977z"></path><path d="M59.389 54.548l5.16-53.541-8.74 39.716-19.612 1.045 1.57 20.462-7.766 36.583 12.057-39.899z"></path><path d="M62.8 67.182l.549-10.453-15.979 3.755-.032 11.797-17.337 26.532 21.68-27.616zM65.711 62.394l14.841-4.731 1.509-12.532-15.899 2.095zM72.07 44.502l10.988-1.417 1.581-10.278-8.079-.373L64.549 1l8.43 30.967z"></path><path d="M87.413 31.294l1.256-9.506-9.544-2.694L64.549 1l14.483 22.437-.422 7z"></path></g></g><!----><g data-v-423bf9ae="" id="deb24712-7463-4fbf-82c6-3601aa515566" fill="#000000" transform="matrix(0.569387408748906,0,0,0.569387408748906,102.16528201035248,58.43987875895669)"><path d="M0.66 5.35L0.16 5.33Q0.28 4.17 0.36 3.08L0.36 3.08L8.44 3.08Q8.36 4.13 8.33 4.53L8.33 4.53Q8.29 5.26 8.27 5.32L8.27 5.32L7.77 5.30Q7.85 4.34 7.85 4.16L7.85 4.16Q7.85 3.88 7.71 3.79L7.71 3.79Q7.54 3.69 7.14 3.69L7.14 3.69L5.53 3.69Q5.02 3.69 4.90 3.79L4.90 3.79Q4.81 3.87 4.80 4.36L4.80 4.36L4.80 11.22Q4.80 11.66 4.94 11.76L4.94 11.76Q5.10 11.87 5.61 11.87L5.61 11.87L6.17 11.87L6.19 12.41L2.50 12.40L2.50 11.87L2.71 11.87Q3.38 11.87 3.53 11.79Q3.67 11.70 3.67 11.28L3.67 11.28L3.67 4.48Q3.67 3.92 3.57 3.80Q3.47 3.69 3.05 3.69L3.05 3.69L1.58 3.69Q1.39 3.69 1.33 3.71Q1.26 3.72 1.15 3.72L1.15 3.72Q1.12 3.72 1.00 3.79L1.00 3.79Q0.92 3.84 0.90 3.86Q0.87 3.88 0.83 3.99L0.83 3.99Q0.80 4.05 0.77 4.14L0.77 4.14Q0.75 4.21 0.72 4.36L0.72 4.36Q0.70 4.59 0.70 4.61L0.70 4.61Q0.70 4.80 0.68 4.95L0.68 4.95Q0.68 5.02 0.68 5.15Q0.67 5.29 0.66 5.35L0.66 5.35ZM16.77 3.64L16.18 3.64L16.19 3.08L19.71 3.08L19.71 3.64L19.48 3.64Q18.93 3.64 18.76 3.73L18.76 3.73Q18.62 3.81 18.62 4.28L18.62 4.28L18.62 11.22Q18.62 11.68 18.73 11.77Q18.84 11.87 19.37 11.87L19.37 11.87L19.92 11.87L19.93 12.41L16.35 12.41L16.34 11.87L16.70 11.87Q17.26 11.87 17.37 11.77Q17.49 11.67 17.49 11.25L17.49 11.25L17.49 4.14Q17.49 3.77 17.38 3.71L17.38 3.71Q17.27 3.64 16.77 3.64L16.77 3.64ZM30.84 12.41L27.82 12.41L27.82 11.87L27.95 11.87Q28.54 11.87 28.66 11.77L28.66 11.77Q28.78 11.68 28.79 11.21L28.79 11.21L28.92 4.38Q28.92 4.35 28.93 4.28Q28.94 4.21 28.94 4.17L28.94 4.17L28.94 4.01Q28.94 3.76 28.86 3.71L28.86 3.71Q28.77 3.64 28.54 3.64L28.54 3.64L27.83 3.64L27.82 3.08L29.93 3.08L33.12 10.55L36.26 3.08L38.49 3.08L38.49 3.64L38.02 3.64Q37.57 3.64 37.45 3.71L37.45 3.71Q37.29 3.79 37.29 4.08L37.29 4.08L37.29 11.22Q37.29 11.68 37.40 11.77Q37.52 11.87 38.14 11.87L38.14 11.87L38.42 11.87L38.44 12.41L35.04 12.41L35.02 11.87L35.30 11.87Q35.92 11.87 36.03 11.77L36.03 11.77Q36.16 11.66 36.16 11.25L36.16 11.25L36.16 4.83L34.00 9.91L33.15 12.02Q33.01 12.37 32.97 12.44Q32.92 12.51 32.85 12.51L32.85 12.51Q32.76 12.51 32.31 11.52L32.31 11.52L29.50 5.01L29.44 11.39Q29.44 11.74 29.63 11.80L29.63 11.80Q29.87 11.87 30.84 11.87L30.84 11.87L30.84 12.41ZM46.18 3.64L46.16 3.08L53.38 3.08Q53.39 4.14 53.44 5.28L53.44 5.28L52.90 5.30Q52.88 4.66 52.83 4.25L52.83 4.25Q52.79 3.89 52.73 3.80L52.73 3.80Q52.68 3.71 52.56 3.69L52.56 3.69Q52.47 3.68 51.88 3.68L51.88 3.68L49.50 3.68Q48.95 3.68 48.81 3.77L48.81 3.77Q48.69 3.86 48.69 4.33L48.69 4.33L48.69 6.28Q48.69 6.69 48.74 6.76L48.74 6.76Q48.81 6.84 49.15 6.84L49.15 6.84L51.26 6.84Q51.63 6.84 51.71 6.73L51.71 6.73Q51.79 6.63 51.80 6.14L51.80 6.14L51.80 5.61L52.31 5.63L52.31 8.97L51.80 8.97L51.80 8.24Q51.80 7.66 51.72 7.57L51.72 7.57Q51.64 7.46 51.29 7.46L51.29 7.46L49.19 7.46Q48.86 7.46 48.77 7.54Q48.69 7.63 48.69 7.89L48.69 7.89L48.69 11.20Q48.69 11.57 48.77 11.67Q48.86 11.77 49.13 11.77L49.13 11.77Q52.05 11.75 52.58 11.69L52.58 11.69Q53.09 11.63 53.18 11.38L53.18 11.38L53.18 11.36L53.19 11.35L53.42 10.17L53.89 10.25L53.55 12.41L46.44 12.41L46.44 11.87L46.81 11.87Q47.37 11.87 47.46 11.80L47.46 11.80Q47.55 11.72 47.55 11.33L47.55 11.33L47.55 4.24Q47.55 3.82 47.40 3.73L47.40 3.73Q47.23 3.64 46.57 3.64L46.57 3.64L46.18 3.64ZM62.26 3.64L61.77 3.64L61.78 3.08L65.37 3.08L65.37 3.64L64.74 3.64Q64.36 3.64 64.25 3.72Q64.13 3.80 64.13 4.16L64.13 4.16L64.13 11.22Q64.13 11.57 64.22 11.67Q64.31 11.77 64.60 11.77L64.60 11.77Q67.47 11.74 68.13 11.63L68.13 11.63Q68.34 11.61 68.42 11.39Q68.50 11.17 68.70 10.05L68.70 10.05L69.19 10.08L68.73 12.41L61.97 12.41L61.95 11.87L62.34 11.87Q62.85 11.87 62.92 11.80L62.92 11.80Q63 11.72 63.01 11.33L63.01 11.33L63.01 4.09Q63.01 3.80 62.85 3.72L62.85 3.72Q62.70 3.64 62.26 3.64L62.26 3.64ZM76.94 3.64L76.92 3.08L84.14 3.08Q84.15 4.14 84.21 5.28L84.21 5.28L83.66 5.30Q83.64 4.66 83.59 4.25L83.59 4.25Q83.55 3.89 83.49 3.80L83.49 3.80Q83.44 3.71 83.32 3.69L83.32 3.69Q83.23 3.68 82.64 3.68L82.64 3.68L80.26 3.68Q79.71 3.68 79.57 3.77L79.57 3.77Q79.45 3.86 79.45 4.33L79.45 4.33L79.45 6.28Q79.45 6.69 79.50 6.76L79.50 6.76Q79.57 6.84 79.91 6.84L79.91 6.84L82.02 6.84Q82.39 6.84 82.47 6.73L82.47 6.73Q82.55 6.63 82.56 6.14L82.56 6.14L82.56 5.61L83.07 5.63L83.07 8.97L82.56 8.97L82.56 8.24Q82.56 7.66 82.48 7.57L82.48 7.57Q82.40 7.46 82.05 7.46L82.05 7.46L79.95 7.46Q79.62 7.46 79.53 7.54Q79.45 7.63 79.45 7.89L79.45 7.89L79.45 11.20Q79.45 11.57 79.53 11.67Q79.62 11.77 79.89 11.77L79.89 11.77Q82.81 11.75 83.34 11.69L83.34 11.69Q83.86 11.63 83.94 11.38L83.94 11.38L83.95 11.36L83.95 11.35L84.18 10.17L84.66 10.25L84.31 12.41L77.21 12.41L77.21 11.87L77.57 11.87Q78.13 11.87 78.22 11.80L78.22 11.80Q78.31 11.72 78.31 11.33L78.31 11.33L78.31 4.24Q78.31 3.82 78.16 3.73L78.16 3.73Q77.99 3.64 77.33 3.64L77.33 3.64L76.94 3.64ZM92.50 10.04L92.50 10.04L93.00 9.98L93.18 10.85Q93.29 11.33 93.36 11.41Q93.43 11.49 93.84 11.64L93.84 11.64Q94.68 11.95 95.57 11.95L95.57 11.95Q96.36 11.95 96.90 11.49L96.90 11.49Q97.43 11.04 97.43 10.26L97.43 10.26Q97.43 9.65 96.97 9.21L96.97 9.21Q96.50 8.76 95.64 8.30L95.64 8.30L95.07 7.98Q94.32 7.55 94.09 7.36L94.09 7.36Q93.73 7.08 93.42 6.59Q93.11 6.10 93.11 5.46L93.11 5.46Q93.11 4.39 93.95 3.68Q94.79 2.97 95.89 2.97L95.89 2.97Q96.17 2.97 96.52 3.04L96.52 3.04Q96.72 3.08 97.06 3.17L97.06 3.17L97.30 3.25Q97.39 3.25 97.43 3.16L97.43 3.16Q97.49 3.05 97.49 2.98L97.49 2.98L97.50 2.88L97.98 2.85L98.19 5.41L97.69 5.43L97.56 4.18Q96.82 3.62 95.66 3.62L95.66 3.62Q95.01 3.62 94.51 4.05L94.51 4.05Q94.03 4.47 94.03 5.12L94.03 5.12Q94.03 5.72 94.48 6.17L94.48 6.17Q94.91 6.60 95.78 7.08L95.78 7.08L96.55 7.50Q97.50 8.03 98.03 8.59Q98.57 9.15 98.57 9.92L98.57 9.92Q98.57 10.99 97.71 11.76L97.71 11.76Q96.84 12.54 95.39 12.54L95.39 12.54Q94.83 12.54 94.33 12.41Q93.82 12.29 93.77 12.29L93.77 12.29Q93.52 12.29 93.52 12.58L93.52 12.58L93.53 12.76L93.05 12.80Q92.99 12.41 92.50 10.04ZM106.72 10.04L106.72 10.04L107.21 9.98L107.40 10.85Q107.51 11.33 107.58 11.41Q107.65 11.49 108.06 11.64L108.06 11.64Q108.90 11.95 109.79 11.95L109.79 11.95Q110.58 11.95 111.12 11.49L111.12 11.49Q111.65 11.04 111.65 10.26L111.65 10.26Q111.65 9.65 111.19 9.21L111.19 9.21Q110.71 8.76 109.86 8.30L109.86 8.30L109.29 7.98Q108.54 7.55 108.31 7.36L108.31 7.36Q107.95 7.08 107.64 6.59Q107.32 6.10 107.32 5.46L107.32 5.46Q107.32 4.39 108.17 3.68Q109.01 2.97 110.11 2.97L110.11 2.97Q110.39 2.97 110.74 3.04L110.74 3.04Q110.94 3.08 111.28 3.17L111.28 3.17L111.51 3.25Q111.61 3.25 111.65 3.16L111.65 3.16Q111.71 3.05 111.71 2.98L111.71 2.98L111.72 2.88L112.20 2.85L112.41 5.41L111.90 5.43L111.78 4.18Q111.04 3.62 109.87 3.62L109.87 3.62Q109.23 3.62 108.73 4.05L108.73 4.05Q108.25 4.47 108.25 5.12L108.25 5.12Q108.25 5.72 108.70 6.17L108.70 6.17Q109.13 6.60 110.00 7.08L110.00 7.08L110.77 7.50Q111.72 8.03 112.25 8.59Q112.79 9.15 112.79 9.92L112.79 9.92Q112.79 10.99 111.93 11.76L111.93 11.76Q111.06 12.54 109.61 12.54L109.61 12.54Q109.05 12.54 108.54 12.41Q108.04 12.29 107.99 12.29L107.99 12.29Q107.73 12.29 107.73 12.58L107.73 12.58L107.75 12.76L107.27 12.80Q107.21 12.41 106.72 10.04ZM130.51 10.04L130.51 10.04L131.00 9.98L131.19 10.85Q131.30 11.33 131.37 11.41Q131.43 11.49 131.84 11.64L131.84 11.64Q132.69 11.95 133.58 11.95L133.58 11.95Q134.37 11.95 134.91 11.49L134.91 11.49Q135.44 11.04 135.44 10.26L135.44 10.26Q135.44 9.65 134.98 9.21L134.98 9.21Q134.50 8.76 133.65 8.30L133.65 8.30L133.08 7.98Q132.33 7.55 132.10 7.36L132.10 7.36Q131.74 7.08 131.42 6.59Q131.11 6.10 131.11 5.46L131.11 5.46Q131.11 4.39 131.95 3.68Q132.79 2.97 133.90 2.97L133.90 2.97Q134.18 2.97 134.53 3.04L134.53 3.04Q134.73 3.08 135.06 3.17L135.06 3.17L135.30 3.25Q135.40 3.25 135.44 3.16L135.44 3.16Q135.50 3.05 135.50 2.98L135.50 2.98L135.51 2.88L135.99 2.85L136.20 5.41L135.69 5.43L135.57 4.18Q134.83 3.62 133.66 3.62L133.66 3.62Q133.02 3.62 132.51 4.05L132.51 4.05Q132.04 4.47 132.04 5.12L132.04 5.12Q132.04 5.72 132.49 6.17L132.49 6.17Q132.92 6.60 133.79 7.08L133.79 7.08L134.56 7.50Q135.51 8.03 136.04 8.59Q136.58 9.15 136.58 9.92L136.58 9.92Q136.58 10.99 135.72 11.76L135.72 11.76Q134.85 12.54 133.40 12.54L133.40 12.54Q132.84 12.54 132.33 12.41Q131.83 12.29 131.78 12.29L131.78 12.29Q131.52 12.29 131.52 12.58L131.52 12.58L131.54 12.76L131.06 12.80Q131.00 12.41 130.51 10.04ZM145.14 7.83L145.14 7.83Q145.14 6.62 145.54 5.68L145.54 5.68Q145.96 4.72 146.65 4.12L146.65 4.12Q147.34 3.51 148.20 3.19L148.20 3.19Q149.04 2.88 149.99 2.88L149.99 2.88Q151.25 2.88 152.30 3.40L152.30 3.40Q153.38 3.93 154.10 5.07L154.10 5.07Q154.79 6.17 154.80 7.75L154.80 7.75Q154.80 8.70 154.49 9.54Q154.18 10.38 153.58 11.10Q152.97 11.81 152.04 12.22L152.04 12.22Q151.07 12.63 149.88 12.64L149.88 12.64Q148.75 12.64 147.81 12.23Q146.88 11.83 146.32 11.14L146.32 11.14Q145.74 10.45 145.45 9.60L145.45 9.60Q145.14 8.72 145.14 7.83ZM146.40 7.38L146.40 7.38Q146.40 8.52 146.83 9.60L146.83 9.60Q147.23 10.64 148.16 11.33L148.16 11.33Q149.07 12.03 150.26 12.04L150.26 12.04Q151.63 12.04 152.57 11.01L152.57 11.01Q153.52 9.97 153.52 8.10L153.52 8.10Q153.52 5.99 152.36 4.72L152.36 4.72Q151.21 3.46 149.70 3.45L149.70 3.45Q149.18 3.45 148.64 3.65Q148.09 3.85 147.59 4.25L147.59 4.25Q147.04 4.68 146.72 5.48L146.72 5.48Q146.40 6.27 146.40 7.38ZM166.64 12.41L162.91 12.41L162.91 11.87L163.35 11.87Q163.73 11.87 163.78 11.81L163.78 11.81Q163.85 11.74 163.86 11.46L163.86 11.46L163.86 4.14Q163.86 3.81 163.77 3.72Q163.69 3.64 163.32 3.64L163.32 3.64L162.96 3.64L162.97 3.08L165.85 3.08Q167.00 3.08 167.65 3.19L167.65 3.19Q168.25 3.28 168.72 3.68L168.72 3.68Q169.91 4.64 169.91 6.19L169.91 6.19Q169.91 7.23 169.15 7.98L169.15 7.98Q168.37 8.74 166.96 8.73L166.96 8.73Q166.79 8.73 166.37 8.70L166.37 8.70Q166.26 8.69 165.84 8.62L165.84 8.62Q165.50 8.55 165.41 8.54L165.41 8.54Q165.12 8.47 165.10 8.46L165.10 8.46L164.99 8.44L164.99 11.46Q164.99 11.74 165.12 11.81L165.12 11.81Q165.22 11.87 165.94 11.87L165.94 11.87L166.64 11.87L166.64 12.41ZM164.99 4.28L164.99 8.02Q165.33 8.29 166.30 8.29L166.30 8.29Q167.44 8.29 168.01 7.75L168.01 7.75Q168.60 7.21 168.60 6.16L168.60 6.16Q168.60 4.98 167.69 4.31L167.69 4.31Q166.80 3.64 165.41 3.64L165.41 3.64Q165.16 3.64 165.07 3.75L165.07 3.75Q164.99 3.84 164.99 4.28L164.99 4.28ZM178.26 3.64L177.89 3.64L177.89 3.08L181.38 3.08L181.38 3.64L181.02 3.64Q180.51 3.64 180.36 3.75L180.36 3.75Q180.22 3.84 180.22 4.25L180.22 4.25L180.22 6.91L184.77 6.91L184.77 4.14Q184.77 3.77 184.67 3.71L184.67 3.71Q184.56 3.64 184.04 3.64L184.04 3.64L183.45 3.64L183.44 3.08L186.99 3.08L186.99 3.64L186.60 3.64Q186.12 3.64 186.01 3.74Q185.90 3.83 185.90 4.22L185.90 4.22L185.90 11.29Q185.90 11.67 186.04 11.77L186.04 11.77Q186.20 11.87 186.74 11.87L186.74 11.87L187.22 11.87L187.20 12.41L183.72 12.41L183.70 11.87L184.11 11.87Q184.58 11.87 184.67 11.77Q184.77 11.67 184.77 11.25L184.77 11.25L184.77 7.58L180.22 7.58L180.22 11.25Q180.22 11.67 180.37 11.77Q180.52 11.87 181.23 11.87L181.23 11.87L181.63 11.87L181.60 12.41L178.02 12.41L178.01 11.87L178.37 11.87Q178.92 11.87 178.99 11.80L178.99 11.80Q179.08 11.70 179.08 11.25L179.08 11.25L179.08 4.09Q179.08 3.76 178.94 3.71L178.94 3.71Q178.77 3.64 178.26 3.64L178.26 3.64ZM195.54 3.64L194.95 3.64L194.97 3.08L198.48 3.08L198.48 3.64L198.25 3.64Q197.70 3.64 197.53 3.73L197.53 3.73Q197.39 3.81 197.39 4.28L197.39 4.28L197.39 11.22Q197.39 11.68 197.50 11.77Q197.61 11.87 198.15 11.87L198.15 11.87L198.69 11.87L198.71 12.41L195.13 12.41L195.11 11.87L195.47 11.87Q196.03 11.87 196.15 11.77Q196.26 11.67 196.26 11.25L196.26 11.25L196.26 4.14Q196.26 3.77 196.16 3.71L196.16 3.71Q196.05 3.64 195.54 3.64L195.54 3.64ZM206.42 10.04L206.42 10.04L206.91 9.98L207.09 10.85Q207.20 11.33 207.27 11.41Q207.34 11.49 207.75 11.64L207.75 11.64Q208.59 11.95 209.49 11.95L209.49 11.95Q210.27 11.95 210.81 11.49L210.81 11.49Q211.35 11.04 211.35 10.26L211.35 10.26Q211.35 9.65 210.89 9.21L210.89 9.21Q210.41 8.76 209.56 8.30L209.56 8.30L208.98 7.98Q208.24 7.55 208.00 7.36L208.00 7.36Q207.64 7.08 207.33 6.59Q207.02 6.10 207.02 5.46L207.02 5.46Q207.02 4.39 207.86 3.68Q208.70 2.97 209.81 2.97L209.81 2.97Q210.09 2.97 210.44 3.04L210.44 3.04Q210.64 3.08 210.97 3.17L210.97 3.17L211.21 3.25Q211.31 3.25 211.35 3.16L211.35 3.16Q211.40 3.05 211.40 2.98L211.40 2.98L211.42 2.88L211.89 2.85L212.11 5.41L211.60 5.43L211.48 4.18Q210.73 3.62 209.57 3.62L209.57 3.62Q208.93 3.62 208.42 4.05L208.42 4.05Q207.94 4.47 207.94 5.12L207.94 5.12Q207.94 5.72 208.39 6.17L208.39 6.17Q208.82 6.60 209.69 7.08L209.69 7.08L210.46 7.50Q211.42 8.03 211.95 8.59Q212.48 9.15 212.48 9.92L212.48 9.92Q212.48 10.99 211.63 11.76L211.63 11.76Q210.76 12.54 209.30 12.54L209.30 12.54Q208.74 12.54 208.24 12.41Q207.74 12.29 207.68 12.29L207.68 12.29Q207.43 12.29 207.43 12.58L207.43 12.58L207.44 12.76L206.96 12.80Q206.90 12.41 206.42 10.04ZM220.94 5.35L220.45 5.33Q220.57 4.17 220.65 3.08L220.65 3.08L228.73 3.08Q228.65 4.13 228.62 4.53L228.62 4.53Q228.58 5.26 228.56 5.32L228.56 5.32L228.06 5.30Q228.14 4.34 228.14 4.16L228.14 4.16Q228.14 3.88 228.00 3.79L228.00 3.79Q227.83 3.69 227.42 3.69L227.42 3.69L225.82 3.69Q225.31 3.69 225.19 3.79L225.19 3.79Q225.09 3.87 225.09 4.36L225.09 4.36L225.09 11.22Q225.09 11.66 225.23 11.76L225.23 11.76Q225.39 11.87 225.90 11.87L225.90 11.87L226.46 11.87L226.47 12.41L222.78 12.40L222.78 11.87L223.00 11.87Q223.67 11.87 223.82 11.79Q223.96 11.70 223.96 11.28L223.96 11.28L223.96 4.48Q223.96 3.92 223.86 3.80Q223.76 3.69 223.34 3.69L223.34 3.69L221.87 3.69Q221.68 3.69 221.61 3.71Q221.55 3.72 221.44 3.72L221.44 3.72Q221.41 3.72 221.29 3.79L221.29 3.79Q221.21 3.84 221.18 3.86Q221.16 3.88 221.12 3.99L221.12 3.99Q221.09 4.05 221.06 4.14L221.06 4.14Q221.03 4.21 221.01 4.36L221.01 4.36Q220.99 4.59 220.99 4.61L220.99 4.61Q220.99 4.80 220.97 4.95L220.97 4.95Q220.97 5.02 220.96 5.15Q220.96 5.29 220.94 5.35L220.94 5.35ZM237.06 3.64L236.47 3.64L236.48 3.08L240.00 3.08L240.00 3.64L239.76 3.64Q239.22 3.64 239.05 3.73L239.05 3.73Q238.91 3.81 238.91 4.28L238.91 4.28L238.91 11.22Q238.91 11.68 239.02 11.77Q239.13 11.87 239.66 11.87L239.66 11.87L240.21 11.87L240.22 12.41L236.64 12.41L236.63 11.87L236.99 11.87Q237.55 11.87 237.66 11.77Q237.77 11.67 237.77 11.25L237.77 11.25L237.77 4.14Q237.77 3.77 237.67 3.71L237.67 3.71Q237.56 3.64 237.06 3.64L237.06 3.64ZM248.34 8.02L248.34 8.02Q248.34 6.86 248.81 5.83L248.81 5.83Q249.28 4.85 250.03 4.27L250.03 4.27Q250.78 3.69 251.67 3.37Q252.57 3.05 253.41 3.05L253.41 3.05Q254.28 3.05 254.95 3.16L254.95 3.16Q255.58 3.26 255.87 3.37L255.87 3.37Q256.18 3.48 256.21 3.48L256.21 3.48Q256.38 3.48 256.40 3.41L256.40 3.41Q256.43 3.33 256.43 3.09L256.43 3.09L256.43 2.97L256.96 2.97Q257.00 4.30 257.13 5.64L257.13 5.64L256.63 5.65Q256.60 5.40 256.59 5.26L256.59 5.26Q256.59 5.20 256.58 5.13Q256.57 5.07 256.57 5.02Q256.56 4.98 256.56 4.95L256.56 4.95Q256.53 4.84 256.53 4.74L256.53 4.74Q256.53 4.68 256.49 4.59L256.49 4.59Q256.49 4.57 256.46 4.55Q256.43 4.52 256.43 4.50L256.43 4.50Q256.40 4.44 256.33 4.41L256.33 4.41Q256.29 4.38 256.27 4.37Q256.24 4.36 256.21 4.35L256.21 4.35Q256.20 4.35 256.17 4.33Q256.15 4.31 256.11 4.29Q256.07 4.27 256.03 4.25L256.03 4.25Q255.80 4.16 255.77 4.14L255.77 4.14Q255.42 3.96 254.78 3.83L254.78 3.83Q254.11 3.71 253.45 3.71L253.45 3.71Q251.73 3.71 250.63 4.84L250.63 4.84Q249.53 5.99 249.53 7.62L249.53 7.62Q249.53 9.35 250.75 10.69L250.75 10.69Q251.95 12.02 253.77 12.02L253.77 12.02Q254.78 12.02 255.72 11.49L255.72 11.49Q256.67 10.94 256.70 10.58L256.70 10.58L256.74 9.41L257.23 9.41L257.15 11.45Q257.08 11.49 256.95 11.57L256.95 11.57Q256.89 11.60 256.43 11.85L256.43 11.85Q256.05 12.05 255.61 12.23L255.61 12.23Q255.25 12.39 254.60 12.51L254.60 12.51Q253.99 12.63 253.42 12.64L253.42 12.64Q251.04 12.64 249.68 11.39L249.68 11.39Q248.34 10.14 248.34 8.02ZM265.28 12.41L265.26 11.87L265.43 11.87Q265.82 11.87 265.95 11.73L265.95 11.73Q266.08 11.57 266.41 10.83L266.41 10.83L267.32 8.82L267.89 7.53Q268.16 6.97 268.20 6.86L268.20 6.86Q268.27 6.70 268.32 6.60Q268.37 6.51 268.39 6.45L268.39 6.45L268.48 6.21L269.91 2.74L270.20 2.74Q271.06 4.98 273.25 10.25L273.25 10.25Q273.70 11.34 273.89 11.64L273.89 11.64Q274.03 11.87 274.46 11.87L274.46 11.87L274.67 11.87L274.66 12.41L271.47 12.41L271.48 11.87L271.90 11.87Q272.51 11.87 272.51 11.70L272.51 11.70Q272.51 11.63 272.38 11.27L272.38 11.27L271.34 8.72L268.09 8.72L266.98 11.18Q266.85 11.50 266.85 11.63L266.85 11.63Q266.85 11.79 266.94 11.83Q267.04 11.87 267.42 11.87L267.42 11.87L268.00 11.87L268.00 12.41L265.28 12.41ZM269.77 4.79L268.36 8.10L271.10 8.10L269.77 4.79ZM282.69 5.35L282.19 5.33Q282.31 4.17 282.39 3.08L282.39 3.08L290.47 3.08Q290.39 4.13 290.36 4.53L290.36 4.53Q290.32 5.26 290.30 5.32L290.30 5.32L289.80 5.30Q289.88 4.34 289.88 4.16L289.88 4.16Q289.88 3.88 289.74 3.79L289.74 3.79Q289.57 3.69 289.17 3.69L289.17 3.69L287.56 3.69Q287.05 3.69 286.93 3.79L286.93 3.79Q286.84 3.87 286.83 4.36L286.83 4.36L286.83 11.22Q286.83 11.66 286.97 11.76L286.97 11.76Q287.13 11.87 287.64 11.87L287.64 11.87L288.20 11.87L288.22 12.41L284.53 12.40L284.53 11.87L284.74 11.87Q285.41 11.87 285.56 11.79Q285.70 11.70 285.70 11.28L285.70 11.28L285.70 4.48Q285.70 3.92 285.60 3.80Q285.50 3.69 285.08 3.69L285.08 3.69L283.61 3.69Q283.42 3.69 283.36 3.71Q283.29 3.72 283.18 3.72L283.18 3.72Q283.15 3.72 283.04 3.79L283.04 3.79Q282.95 3.84 282.93 3.86Q282.90 3.88 282.86 3.99L282.86 3.99Q282.83 4.05 282.80 4.14L282.80 4.14Q282.78 4.21 282.75 4.36L282.75 4.36Q282.73 4.59 282.73 4.61L282.73 4.61Q282.73 4.80 282.71 4.95L282.71 4.95Q282.71 5.02 282.71 5.15Q282.70 5.29 282.69 5.35L282.69 5.35ZM298.80 3.64L298.21 3.64L298.22 3.08L301.74 3.08L301.74 3.64L301.51 3.64Q300.96 3.64 300.79 3.73L300.79 3.73Q300.65 3.81 300.65 4.28L300.65 4.28L300.65 11.22Q300.65 11.68 300.76 11.77Q300.87 11.87 301.40 11.87L301.40 11.87L301.95 11.87L301.96 12.41L298.38 12.41L298.37 11.87L298.73 11.87Q299.29 11.87 299.40 11.77Q299.52 11.67 299.52 11.25L299.52 11.25L299.52 4.14Q299.52 3.77 299.41 3.71L299.41 3.71Q299.30 3.64 298.80 3.64L298.80 3.64ZM310.08 7.83L310.08 7.83Q310.08 6.62 310.49 5.68L310.49 5.68Q310.91 4.72 311.60 4.12L311.60 4.12Q312.29 3.51 313.15 3.19L313.15 3.19Q313.99 2.88 314.94 2.88L314.94 2.88Q316.20 2.88 317.25 3.40L317.25 3.40Q318.33 3.93 319.04 5.07L319.04 5.07Q319.74 6.17 319.74 7.75L319.74 7.75Q319.74 8.70 319.44 9.54Q319.13 10.38 318.52 11.10Q317.92 11.81 316.98 12.22L316.98 12.22Q316.02 12.63 314.83 12.64L314.83 12.64Q313.69 12.64 312.76 12.23Q311.82 11.83 311.26 11.14L311.26 11.14Q310.69 10.45 310.39 9.60L310.39 9.60Q310.08 8.72 310.08 7.83ZM311.34 7.38L311.34 7.38Q311.34 8.52 311.77 9.60L311.77 9.60Q312.18 10.64 313.11 11.33L313.11 11.33Q314.02 12.03 315.21 12.04L315.21 12.04Q316.58 12.04 317.52 11.01L317.52 11.01Q318.47 9.97 318.47 8.10L318.47 8.10Q318.47 5.99 317.30 4.72L317.30 4.72Q316.16 3.46 314.64 3.45L314.64 3.45Q314.13 3.45 313.58 3.65Q313.04 3.85 312.53 4.25L312.53 4.25Q311.99 4.68 311.66 5.48L311.66 5.48Q311.34 6.27 311.34 7.38ZM327.87 3.64L327.86 3.08L330.03 3.08L335.77 10.48L335.77 4.14Q335.77 3.81 335.61 3.72Q335.46 3.64 335.00 3.64L335.00 3.64L334.51 3.64L334.54 3.08L337.52 3.08L337.52 3.64L337.20 3.64Q336.73 3.64 336.58 3.75Q336.43 3.86 336.43 4.25L336.43 4.25L336.43 12.32L336.43 12.47Q336.43 12.52 336.42 12.57Q336.40 12.61 336.37 12.64L336.37 12.64Q336.36 12.65 336.30 12.65L336.30 12.65L336.11 12.65L336.05 12.65L336.02 12.65L335.99 12.64Q335.97 12.64 335.95 12.63Q335.94 12.61 335.94 12.60Q335.94 12.58 335.92 12.57L335.92 12.57Q335.90 12.54 335.87 12.50L335.87 12.50Q335.86 12.48 335.84 12.45Q335.82 12.41 335.80 12.40L335.80 12.40L329.70 4.56L329.77 11.22Q329.77 11.67 329.93 11.77L329.93 11.77Q330.09 11.87 330.80 11.87L330.80 11.87L331.04 11.87L331.04 12.41L328.10 12.41L328.10 11.87L328.52 11.87Q328.90 11.87 329.01 11.76L329.01 11.76Q329.10 11.66 329.11 11.25L329.11 11.25L329.11 3.80L328.97 3.64L327.87 3.64ZM345.37 14.26L345.37 14.26Q345.37 14.18 345.52 14.07L345.52 14.07Q345.55 14.04 345.86 13.86L345.86 13.86Q346.05 13.73 346.20 13.48L346.20 13.48Q346.36 13.21 346.35 12.87L346.35 12.87Q346.35 12.65 346.25 12.48L346.25 12.48Q346.17 12.33 346.04 12.28L346.04 12.28Q345.96 12.24 345.84 12.15L345.84 12.15Q345.75 12.08 345.75 12.00L345.75 12.00Q345.75 11.84 346.03 11.59Q346.31 11.33 346.39 11.33L346.39 11.33Q346.42 11.33 346.62 11.39L346.62 11.39Q346.74 11.43 346.96 11.72L346.96 11.72Q347.18 12.00 347.18 12.44L347.18 12.44Q347.18 12.86 347.00 13.31Q346.81 13.76 346.55 14.03L346.55 14.03Q346.12 14.46 345.55 14.46L345.55 14.46Q345.37 14.46 345.37 14.26ZM365.53 3.64L364.94 3.64L364.96 3.08L368.47 3.08L368.47 3.64L368.24 3.64Q367.69 3.64 367.52 3.73L367.52 3.73Q367.38 3.81 367.38 4.28L367.38 4.28L367.38 11.22Q367.38 11.68 367.49 11.77Q367.60 11.87 368.14 11.87L368.14 11.87L368.68 11.87L368.70 12.41L365.11 12.41L365.10 11.87L365.46 11.87Q366.02 11.87 366.14 11.77Q366.25 11.67 366.25 11.25L366.25 11.25L366.25 4.14Q366.25 3.77 366.15 3.71L366.15 3.71Q366.04 3.64 365.53 3.64L365.53 3.64ZM376.45 3.64L376.43 3.08L378.61 3.08L384.34 10.48L384.34 4.14Q384.34 3.81 384.19 3.72Q384.04 3.64 383.58 3.64L383.58 3.64L383.09 3.64L383.11 3.08L386.09 3.08L386.09 3.64L385.77 3.64Q385.31 3.64 385.16 3.75Q385.01 3.86 385.01 4.25L385.01 4.25L385.01 12.32L385.01 12.47Q385.01 12.52 384.99 12.57Q384.98 12.61 384.95 12.64L384.95 12.64Q384.93 12.65 384.88 12.65L384.88 12.65L384.69 12.65L384.62 12.65L384.60 12.65L384.57 12.64Q384.54 12.64 384.53 12.63Q384.51 12.61 384.51 12.60Q384.51 12.58 384.50 12.57L384.50 12.57Q384.47 12.54 384.45 12.50L384.45 12.50Q384.43 12.48 384.41 12.45Q384.39 12.41 384.38 12.40L384.38 12.40L378.27 4.56L378.34 11.22Q378.34 11.67 378.51 11.77L378.51 11.77Q378.66 11.87 379.37 11.87L379.37 11.87L379.61 11.87L379.61 12.41L376.67 12.41L376.67 11.87L377.10 11.87Q377.47 11.87 377.58 11.76L377.58 11.76Q377.68 11.66 377.69 11.25L377.69 11.25L377.69 3.80L377.54 3.64L376.45 3.64ZM393.85 3.64L393.83 3.08L401.02 3.08Q401.03 4.14 401.08 5.28L401.08 5.28L400.54 5.30Q400.52 4.66 400.47 4.25L400.47 4.25Q400.43 3.89 400.37 3.80L400.37 3.80Q400.32 3.71 400.20 3.69L400.20 3.69Q400.11 3.68 399.52 3.68L399.52 3.68L397.14 3.68Q396.59 3.68 396.45 3.77L396.45 3.77Q396.33 3.86 396.33 4.33L396.33 4.33L396.33 6.28Q396.33 6.69 396.38 6.76L396.38 6.76Q396.45 6.84 396.79 6.84L396.79 6.84L398.90 6.84Q399.27 6.84 399.35 6.74Q399.43 6.64 399.43 6.17L399.43 6.17L399.43 5.63L399.95 5.63L399.95 8.97L399.43 8.97L399.43 8.26Q399.43 7.68 399.35 7.57Q399.27 7.46 398.93 7.46L398.93 7.46L396.83 7.46Q396.50 7.46 396.41 7.54Q396.33 7.63 396.33 7.89L396.33 7.89L396.33 11.20Q396.33 11.60 396.40 11.73L396.40 11.73Q396.48 11.87 396.74 11.87L396.74 11.87L397.68 11.87L397.68 12.41L394.08 12.41L394.08 11.87L394.50 11.87Q395.00 11.87 395.10 11.79Q395.19 11.70 395.19 11.33L395.19 11.33L395.19 4.24Q395.19 3.79 395.02 3.71L395.02 3.71Q394.88 3.64 393.85 3.64L393.85 3.64ZM409.72 3.64L409.13 3.64L409.14 3.08L412.66 3.08L412.66 3.64L412.43 3.64Q411.88 3.64 411.71 3.73L411.71 3.73Q411.57 3.81 411.57 4.28L411.57 4.28L411.57 11.22Q411.57 11.68 411.68 11.77Q411.79 11.87 412.32 11.87L412.32 11.87L412.87 11.87L412.88 12.41L409.30 12.41L409.29 11.87L409.65 11.87Q410.21 11.87 410.32 11.77Q410.44 11.67 410.44 11.25L410.44 11.25L410.44 4.14Q410.44 3.77 410.33 3.71L410.33 3.71Q410.22 3.64 409.72 3.64L409.72 3.64ZM420.64 3.64L420.62 3.08L422.80 3.08L428.53 10.48L428.53 4.14Q428.53 3.81 428.38 3.72Q428.22 3.64 427.77 3.64L427.77 3.64L427.27 3.64L427.30 3.08L430.28 3.08L430.28 3.64L429.96 3.64Q429.50 3.64 429.34 3.75Q429.19 3.86 429.19 4.25L429.19 4.25L429.19 12.32L429.19 12.47Q429.19 12.52 429.18 12.57Q429.17 12.61 429.13 12.64L429.13 12.64Q429.12 12.65 429.06 12.65L429.06 12.65L428.87 12.65L428.81 12.65L428.78 12.65L428.76 12.64Q428.73 12.64 428.72 12.63Q428.70 12.61 428.70 12.60Q428.70 12.58 428.69 12.57L428.69 12.57Q428.66 12.54 428.63 12.50L428.63 12.50Q428.62 12.48 428.60 12.45Q428.58 12.41 428.57 12.40L428.57 12.40L422.46 4.56L422.53 11.22Q422.53 11.67 422.69 11.77L422.69 11.77Q422.85 11.87 423.56 11.87L423.56 11.87L423.80 11.87L423.80 12.41L420.86 12.41L420.86 11.87L421.29 11.87Q421.66 11.87 421.77 11.76L421.77 11.76Q421.87 11.66 421.87 11.25L421.87 11.25L421.87 3.80L421.73 3.64L420.64 3.64ZM438.61 3.64L438.02 3.64L438.03 3.08L441.55 3.08L441.55 3.64L441.31 3.64Q440.77 3.64 440.60 3.73L440.60 3.73Q440.46 3.81 440.46 4.28L440.46 4.28L440.46 11.22Q440.46 11.68 440.57 11.77Q440.68 11.87 441.21 11.87L441.21 11.87L441.76 11.87L441.77 12.41L438.19 12.41L438.18 11.87L438.54 11.87Q439.10 11.87 439.21 11.77Q439.33 11.67 439.33 11.25L439.33 11.25L439.33 4.14Q439.33 3.77 439.22 3.71L439.22 3.71Q439.11 3.64 438.61 3.64L438.61 3.64ZM449.79 5.35L449.29 5.33Q449.42 4.17 449.50 3.08L449.50 3.08L457.58 3.08Q457.50 4.13 457.47 4.53L457.47 4.53Q457.43 5.26 457.41 5.32L457.41 5.32L456.91 5.30Q456.99 4.34 456.99 4.16L456.99 4.16Q456.99 3.88 456.85 3.79L456.85 3.79Q456.67 3.69 456.27 3.69L456.27 3.69L454.67 3.69Q454.16 3.69 454.04 3.79L454.04 3.79Q453.94 3.87 453.93 4.36L453.93 4.36L453.93 11.22Q453.93 11.66 454.08 11.76L454.08 11.76Q454.23 11.87 454.75 11.87L454.75 11.87L455.31 11.87L455.32 12.41L451.63 12.40L451.63 11.87L451.85 11.87Q452.52 11.87 452.66 11.79Q452.81 11.70 452.81 11.28L452.81 11.28L452.81 4.48Q452.81 3.92 452.71 3.80Q452.61 3.69 452.18 3.69L452.18 3.69L450.71 3.69Q450.53 3.69 450.46 3.71Q450.39 3.72 450.28 3.72L450.28 3.72Q450.26 3.72 450.14 3.79L450.14 3.79Q450.06 3.84 450.03 3.86Q450.00 3.88 449.96 3.99L449.96 3.99Q449.93 4.05 449.91 4.14L449.91 4.14Q449.88 4.21 449.86 4.36L449.86 4.36Q449.83 4.59 449.83 4.61L449.83 4.61Q449.83 4.80 449.82 4.95L449.82 4.95Q449.82 5.02 449.81 5.15Q449.80 5.29 449.79 5.35L449.79 5.35ZM465.33 3.64L465.32 3.08L472.53 3.08Q472.54 4.14 472.60 5.28L472.60 5.28L472.05 5.30Q472.04 4.66 471.98 4.25L471.98 4.25Q471.94 3.89 471.88 3.80L471.88 3.80Q471.83 3.71 471.71 3.69L471.71 3.69Q471.62 3.68 471.03 3.68L471.03 3.68L468.65 3.68Q468.10 3.68 467.96 3.77L467.96 3.77Q467.84 3.86 467.84 4.33L467.84 4.33L467.84 6.28Q467.84 6.69 467.89 6.76L467.89 6.76Q467.96 6.84 468.30 6.84L468.30 6.84L470.42 6.84Q470.78 6.84 470.86 6.73L470.86 6.73Q470.94 6.63 470.95 6.14L470.95 6.14L470.95 5.61L471.46 5.63L471.46 8.97L470.95 8.97L470.95 8.24Q470.95 7.66 470.87 7.57L470.87 7.57Q470.79 7.46 470.44 7.46L470.44 7.46L468.34 7.46Q468.01 7.46 467.92 7.54Q467.84 7.63 467.84 7.89L467.84 7.89L467.84 11.20Q467.84 11.57 467.92 11.67Q468.01 11.77 468.28 11.77L468.28 11.77Q471.20 11.75 471.73 11.69L471.73 11.69Q472.25 11.63 472.33 11.38L472.33 11.38L472.34 11.36L472.34 11.35L472.57 10.17L473.05 10.25L472.70 12.41L465.60 12.41L465.60 11.87L465.96 11.87Q466.53 11.87 466.61 11.80L466.61 11.80Q466.70 11.72 466.70 11.33L466.70 11.33L466.70 4.24Q466.70 3.82 466.55 3.73L466.55 3.73Q466.38 3.64 465.73 3.64L465.73 3.64L465.33 3.64ZM490.51 3.64L490.49 3.08L497.70 3.08Q497.72 4.14 497.77 5.28L497.77 5.28L497.23 5.30Q497.21 4.66 497.16 4.25L497.16 4.25Q497.12 3.89 497.06 3.80L497.06 3.80Q497.01 3.71 496.89 3.69L496.89 3.69Q496.79 3.68 496.21 3.68L496.21 3.68L493.83 3.68Q493.28 3.68 493.14 3.77L493.14 3.77Q493.01 3.86 493.01 4.33L493.01 4.33L493.01 6.28Q493.01 6.69 493.07 6.76L493.07 6.76Q493.14 6.84 493.48 6.84L493.48 6.84L495.59 6.84Q495.95 6.84 496.04 6.73L496.04 6.73Q496.12 6.63 496.13 6.14L496.13 6.14L496.13 5.61L496.64 5.63L496.64 8.97L496.13 8.97L496.13 8.24Q496.13 7.66 496.05 7.57L496.05 7.57Q495.97 7.46 495.62 7.46L495.62 7.46L493.52 7.46Q493.19 7.46 493.10 7.54Q493.01 7.63 493.01 7.89L493.01 7.89L493.01 11.20Q493.01 11.57 493.10 11.67Q493.19 11.77 493.46 11.77L493.46 11.77Q496.38 11.75 496.90 11.69L496.90 11.69Q497.42 11.63 497.51 11.38L497.51 11.38L497.51 11.36L497.52 11.35L497.75 10.17L498.22 10.25L497.88 12.41L490.77 12.41L490.77 11.87L491.14 11.87Q491.70 11.87 491.78 11.80L491.78 11.80Q491.88 11.72 491.88 11.33L491.88 11.33L491.88 4.24Q491.88 3.82 491.73 3.73L491.73 3.73Q491.56 3.64 490.90 3.64L490.90 3.64L490.51 3.64ZM506.59 3.64L506.10 3.64L506.11 3.08L509.70 3.08L509.70 3.64L509.07 3.64Q508.69 3.64 508.58 3.72Q508.46 3.80 508.46 4.16L508.46 4.16L508.46 11.22Q508.46 11.57 508.55 11.67Q508.63 11.77 508.93 11.77L508.93 11.77Q511.80 11.74 512.46 11.63L512.46 11.63Q512.67 11.61 512.75 11.39Q512.83 11.17 513.03 10.05L513.03 10.05L513.52 10.08L513.06 12.41L506.30 12.41L506.28 11.87L506.67 11.87Q507.18 11.87 507.25 11.80L507.25 11.80Q507.33 11.72 507.34 11.33L507.34 11.33L507.34 4.09Q507.34 3.80 507.18 3.72L507.18 3.72Q507.03 3.64 506.59 3.64L506.59 3.64ZM521.27 3.64L521.25 3.08L528.47 3.08Q528.48 4.14 528.53 5.28L528.53 5.28L527.99 5.30Q527.97 4.66 527.92 4.25L527.92 4.25Q527.88 3.89 527.82 3.80L527.82 3.80Q527.77 3.71 527.65 3.69L527.65 3.69Q527.56 3.68 526.97 3.68L526.97 3.68L524.59 3.68Q524.04 3.68 523.90 3.77L523.90 3.77Q523.78 3.86 523.78 4.33L523.78 4.33L523.78 6.28Q523.78 6.69 523.83 6.76L523.83 6.76Q523.90 6.84 524.24 6.84L524.24 6.84L526.35 6.84Q526.72 6.84 526.80 6.73L526.80 6.73Q526.88 6.63 526.89 6.14L526.89 6.14L526.89 5.61L527.40 5.63L527.40 8.97L526.89 8.97L526.89 8.24Q526.89 7.66 526.81 7.57L526.81 7.57Q526.73 7.46 526.38 7.46L526.38 7.46L524.28 7.46Q523.95 7.46 523.86 7.54Q523.78 7.63 523.78 7.89L523.78 7.89L523.78 11.20Q523.78 11.57 523.86 11.67Q523.95 11.77 524.22 11.77L524.22 11.77Q527.14 11.75 527.67 11.69L527.67 11.69Q528.19 11.63 528.27 11.38L528.27 11.38L528.27 11.36L528.28 11.35L528.51 10.17L528.99 10.25L528.64 12.41L521.53 12.41L521.53 11.87L521.90 11.87Q522.46 11.87 522.55 11.80L522.55 11.80Q522.64 11.72 522.64 11.33L522.64 11.33L522.64 4.24Q522.64 3.82 522.49 3.73L522.49 3.73Q522.32 3.64 521.66 3.64L521.66 3.64L521.27 3.64ZM537.24 8.24L537.24 8.24Q537.24 6.92 537.86 5.72Q538.47 4.52 539.70 3.72L539.70 3.72Q540.94 2.92 542.56 2.92L542.56 2.92Q543.83 2.92 545.42 3.57L545.42 3.57L545.42 2.86L545.98 2.86L546.08 5.92L545.53 5.93L545.43 4.48Q545.35 4.41 545.08 4.24L545.08 4.24Q544.82 4.07 544.07 3.83L544.07 3.83Q543.35 3.60 542.45 3.60L542.45 3.60Q541.47 3.60 540.70 3.93Q539.93 4.27 539.46 4.83L539.46 4.83Q539 5.39 538.75 6.08L538.75 6.08Q538.50 6.78 538.50 7.57L538.50 7.57Q538.50 9.33 539.62 10.69Q540.74 12.05 542.60 12.05L542.60 12.05Q543.30 12.05 543.93 11.85Q544.56 11.66 544.78 11.48L544.78 11.48L545.02 11.28L545.02 8.78L543.36 8.78L543.35 8.23L547.21 8.23L547.22 8.78L546.16 8.78L546.16 11.64L545.37 11.98Q544.67 12.30 544.45 12.39L544.45 12.39Q544.20 12.48 543.55 12.61L543.55 12.61Q542.94 12.74 542.34 12.74L542.34 12.74Q541.04 12.74 540.07 12.37L540.07 12.37Q539.08 12.00 538.46 11.36L538.46 11.36Q537.87 10.76 537.55 9.94L537.55 9.94Q537.24 9.15 537.24 8.24ZM554.98 12.41L554.96 11.87L555.13 11.87Q555.52 11.87 555.65 11.73L555.65 11.73Q555.78 11.57 556.11 10.83L556.11 10.83L557.02 8.82L557.59 7.53Q557.86 6.97 557.90 6.86L557.90 6.86Q557.97 6.70 558.02 6.60Q558.07 6.51 558.09 6.45L558.09 6.45L558.18 6.21L559.61 2.74L559.90 2.74Q560.76 4.98 562.95 10.25L562.95 10.25Q563.40 11.34 563.59 11.64L563.59 11.64Q563.73 11.87 564.16 11.87L564.16 11.87L564.38 11.87L564.36 12.41L561.17 12.41L561.18 11.87L561.60 11.87Q562.21 11.87 562.21 11.70L562.21 11.70Q562.21 11.63 562.08 11.27L562.08 11.27L561.04 8.72L557.79 8.72L556.68 11.18Q556.55 11.50 556.55 11.63L556.55 11.63Q556.55 11.79 556.64 11.83Q556.74 11.87 557.12 11.87L557.12 11.87L557.70 11.87L557.70 12.41L554.98 12.41ZM559.47 4.79L558.06 8.10L560.80 8.10L559.47 4.79ZM572.12 3.64L572.11 3.08L574.28 3.08L580.02 10.48L580.02 4.14Q580.02 3.81 579.86 3.72Q579.71 3.64 579.25 3.64L579.25 3.64L578.76 3.64L578.79 3.08L581.77 3.08L581.77 3.64L581.44 3.64Q580.98 3.64 580.83 3.75Q580.68 3.86 580.68 4.25L580.68 4.25L580.68 12.32L580.68 12.47Q580.68 12.52 580.67 12.57Q580.65 12.61 580.62 12.64L580.62 12.64Q580.60 12.65 580.55 12.65L580.55 12.65L580.36 12.65L580.30 12.65L580.27 12.65L580.24 12.64Q580.21 12.64 580.20 12.63Q580.19 12.61 580.19 12.60Q580.19 12.58 580.17 12.57L580.17 12.57Q580.15 12.54 580.12 12.50L580.12 12.50Q580.10 12.48 580.08 12.45Q580.06 12.41 580.05 12.40L580.05 12.40L573.95 4.56L574.01 11.22Q574.01 11.67 574.18 11.77L574.18 11.77Q574.33 11.87 575.05 11.87L575.05 11.87L575.29 11.87L575.29 12.41L572.35 12.41L572.35 11.87L572.77 11.87Q573.15 11.87 573.25 11.76L573.25 11.76Q573.35 11.66 573.36 11.25L573.36 11.25L573.36 3.80L573.21 3.64L572.12 3.64ZM589.89 8.02L589.89 8.02Q589.89 6.86 590.36 5.83L590.36 5.83Q590.82 4.85 591.58 4.27L591.58 4.27Q592.32 3.69 593.22 3.37Q594.11 3.05 594.95 3.05L594.95 3.05Q595.82 3.05 596.49 3.16L596.49 3.16Q597.12 3.26 597.41 3.37L597.41 3.37Q597.72 3.48 597.75 3.48L597.75 3.48Q597.93 3.48 597.95 3.41L597.95 3.41Q597.97 3.33 597.97 3.09L597.97 3.09L597.97 2.97L598.51 2.97Q598.55 4.30 598.68 5.64L598.68 5.64L598.17 5.65Q598.14 5.40 598.13 5.26L598.13 5.26Q598.13 5.20 598.12 5.13Q598.12 5.07 598.11 5.02Q598.10 4.98 598.10 4.95L598.10 4.95Q598.08 4.84 598.08 4.74L598.08 4.74Q598.08 4.68 598.04 4.59L598.04 4.59Q598.04 4.57 598.00 4.55Q597.97 4.52 597.97 4.50L597.97 4.50Q597.95 4.44 597.88 4.41L597.88 4.41Q597.84 4.38 597.81 4.37Q597.78 4.36 597.75 4.35L597.75 4.35Q597.74 4.35 597.72 4.33Q597.69 4.31 597.65 4.29Q597.61 4.27 597.57 4.25L597.57 4.25Q597.34 4.16 597.32 4.14L597.32 4.14Q596.97 3.96 596.33 3.83L596.33 3.83Q595.66 3.71 594.99 3.71L594.99 3.71Q593.27 3.71 592.18 4.84L592.18 4.84Q591.07 5.99 591.08 7.62L591.08 7.62Q591.08 9.35 592.29 10.69L592.29 10.69Q593.50 12.02 595.31 12.02L595.31 12.02Q596.32 12.02 597.26 11.49L597.26 11.49Q598.21 10.94 598.24 10.58L598.24 10.58L598.28 9.41L598.77 9.41L598.69 11.45Q598.62 11.49 598.49 11.57L598.49 11.57Q598.44 11.60 597.97 11.85L597.97 11.85Q597.60 12.05 597.15 12.23L597.15 12.23Q596.79 12.39 596.14 12.51L596.14 12.51Q595.53 12.63 594.97 12.64L594.97 12.64Q592.59 12.64 591.23 11.39L591.23 11.39Q589.89 10.14 589.89 8.02ZM606.82 3.64L606.81 3.08L614.02 3.08Q614.03 4.14 614.09 5.28L614.09 5.28L613.54 5.30Q613.53 4.66 613.47 4.25L613.47 4.25Q613.43 3.89 613.38 3.80L613.38 3.80Q613.32 3.71 613.20 3.69L613.20 3.69Q613.11 3.68 612.52 3.68L612.52 3.68L610.14 3.68Q609.59 3.68 609.45 3.77L609.45 3.77Q609.33 3.86 609.33 4.33L609.33 4.33L609.33 6.28Q609.33 6.69 609.38 6.76L609.38 6.76Q609.45 6.84 609.79 6.84L609.79 6.84L611.91 6.84Q612.27 6.84 612.35 6.73L612.35 6.73Q612.43 6.63 612.44 6.14L612.44 6.14L612.44 5.61L612.95 5.63L612.95 8.97L612.44 8.97L612.44 8.24Q612.44 7.66 612.36 7.57L612.36 7.57Q612.28 7.46 611.93 7.46L611.93 7.46L609.83 7.46Q609.50 7.46 609.41 7.54Q609.33 7.63 609.33 7.89L609.33 7.89L609.33 11.20Q609.33 11.57 609.41 11.67Q609.50 11.77 609.77 11.77L609.77 11.77Q612.69 11.75 613.22 11.69L613.22 11.69Q613.74 11.63 613.82 11.38L613.82 11.38L613.83 11.36L613.83 11.35L614.06 10.17L614.54 10.25L614.19 12.41L607.09 12.41L607.09 11.87L607.46 11.87Q608.02 11.87 608.10 11.80L608.10 11.80Q608.19 11.72 608.19 11.33L608.19 11.33L608.19 4.24Q608.19 3.82 608.04 3.73L608.04 3.73Q607.87 3.64 607.22 3.64L607.22 3.64L606.82 3.64ZM622.90 11.84L622.90 11.84Q622.90 11.68 623.18 11.45Q623.46 11.21 623.57 11.21L623.57 11.21Q623.77 11.21 624.01 11.49L624.01 11.49Q624.24 11.76 624.24 11.91L624.24 11.91Q624.24 12.09 623.97 12.32L623.97 12.32Q623.69 12.56 623.53 12.55L623.53 12.55Q623.41 12.55 623.16 12.29Q622.90 12.02 622.90 11.84Z"></path></g></svg>